<?xml version="1.0" encoding="iso-8859-1"?>
<!-- Generator: Adobe Illustrator 18.0.0, SVG Export Plug-In . SVG Version: 6.00 Build 0)  -->
<!DOCTYPE svg PUBLIC "-//W3C//DTD SVG 1.1//EN" "http://www.w3.org/Graphics/SVG/1.1/DTD/svg11.dtd">
<svg version="1.1" id="Capa_1" xmlns="http://www.w3.org/2000/svg" xmlns:xlink="http://www.w3.org/1999/xlink" x="0px" y="0px"
	 viewBox="0 0 341.133 341.133" style="enable-background:new 0 0 341.133 341.133;" xml:space="preserve">
<g>
	<path d="M253.719,148.886c-0.63,0-1.244,0.064-1.848,0.159v-32.803c0-18.17-14.782-32.952-32.951-32.952h-2.918V5
		c0-2.762-2.239-5-5-5h-94.568c-2.761,0-5,2.238-5,5v78.29h-2.914c-18.17,0-32.953,14.782-32.953,32.952v109.035
		c0,18.171,14.783,32.953,32.953,32.953h2.914v77.902c0,2.762,2.239,5,5,5h94.568c2.761,0,5-2.238,5-5V258.23h2.918
		c18.169,0,32.951-14.782,32.951-32.953v-32.801c0.604,0.096,1.218,0.159,1.848,0.159c6.533,0,11.848-5.314,11.848-11.847v-20.056
		C265.566,154.2,260.251,148.886,253.719,148.886z M233.719,161.779v17.964v39.847c0,11.336-9.222,20.56-20.557,20.56h-98.884
		c-11.336,0-20.559-9.224-20.559-20.56v-97.66c0-11.336,9.223-20.559,20.559-20.559h98.884c11.335,0,20.557,9.223,20.557,20.559
		V161.779z"/>
	<path d="M201.09,190.133l-11.6-11.601c-1.275-1.273-3.073-1.908-4.826-1.727c-2.593,0.263-5.093,1.123-7.245,2.491l-3.086,1.961
		l-2.805-2.346c-5.762-4.82-11.129-10.193-15.954-15.97l-2.341-2.803l1.957-3.083c1.385-2.181,2.222-4.612,2.487-7.228
		c0.18-1.794-0.449-3.559-1.726-4.834l-11.603-11.604c-1.117-1.117-2.663-1.758-4.242-1.758c-0.191,0-0.383,0.01-0.575,0.029
		c-3.803,0.375-7.387,2.073-10.1,4.78c-5.202,5.207-6.357,13.318-2.805,19.722c9.077,16.566,30.893,40.42,51.711,51.704
		c2.421,1.32,5.16,2.015,7.934,2.016c4.404,0,8.696-1.765,11.776-4.841c2.704-2.708,4.4-6.293,4.773-10.088
		C202.997,193.17,202.365,191.41,201.09,190.133z"/>
</g>
<g>
</g>
<g>
</g>
<g>
</g>
<g>
</g>
<g>
</g>
<g>
</g>
<g>
</g>
<g>
</g>
<g>
</g>
<g>
</g>
<g>
</g>
<g>
</g>
<g>
</g>
<g>
</g>
<g>
</g>
</svg>
